<?xml version="1.0" encoding="utf-8"?>
<!-- Generator: Adobe Illustrator 24.0.0, SVG Export Plug-In . SVG Version: 6.00 Build 0)  -->
<svg version="1.1" xmlns="http://www.w3.org/2000/svg" xmlns:xlink="http://www.w3.org/1999/xlink" x="0px" y="0px"
	 viewBox="0 0 800 800" style="enable-background:new 0 0 800 800;" xml:space="preserve">
<style type="text/css">
	.st0{fill:#9DDAE5;}
	.st1{fill:#F0C6BF;}
	.st2{fill:#F2E1DE;}
	.st3{fill:#E99F96;}
	.st4{fill:#540836;}
</style>
<g id="BACKGROUND">
	<rect class="st0" width="800" height="800"/>
</g>
<g id="OBJECTS">
	<g>
		<path class="st1" d="M584.41,457.76c18.66,0,33.79-15.13,33.79-33.79c0-18.66-15.13-33.79-33.79-33.79h-60.59v-4.5h53.27
			c18.66,0,33.79-15.13,33.79-33.79l0,0c0-18.66-15.13-33.79-33.79-33.79H406.7l16.92-62.41c8.61-30.97-9.52-63.06-40.49-71.67l0,0
			c-13.73-3.82-27.95,4.22-31.77,17.95L306.1,366.81c-5.08,10.85-7.93,22.96-7.93,35.73v96.69c0,46.63,37.8,84.43,84.43,84.43
			h179.77c13.98,0,25.31-11.33,25.31-25.31v0c0-13.98-11.33-25.31-25.31-25.31h-38.56v-3.22h48.37c18.66,0,33.79-15.13,33.79-33.79
			c0-18.66-15.13-33.79-33.79-33.79h-48.37v-4.5H584.41z"/>
		<g>
			<path class="st2" d="M610.87,351.9L610.87,351.9c0-18.66-15.13-33.79-33.79-33.79H551.5c18.66,0,33.79,15.13,33.79,33.79l0,0
				c0,18.66-15.13,33.79-33.79,33.79h25.58C595.75,385.69,610.87,370.56,610.87,351.9z"/>
		</g>
		<g>
			<path class="st2" d="M618.19,423.98c0-18.66-15.13-33.79-33.79-33.79h-25.58c18.66,0,33.79,15.13,33.79,33.79
				c0,18.66-15.13,33.79-33.79,33.79h25.58C603.07,457.76,618.19,442.64,618.19,423.98z"/>
		</g>
		<g>
			<path class="st2" d="M605.97,496.05c0-18.66-15.13-33.79-33.79-33.79H546.6c18.66,0,33.79,15.13,33.79,33.79
				c0,18.66-15.13,33.79-33.79,33.79h25.58C590.85,529.84,605.97,514.71,605.97,496.05z"/>
		</g>
		<g>
			<path class="st2" d="M587.68,558.36L587.68,558.36c0-13.98-11.33-25.31-25.31-25.31h-25.58c13.98,0,25.31,11.33,25.31,25.31v0
				c0,13.98-11.33,25.31-25.31,25.31h25.58C576.35,583.67,587.68,572.34,587.68,558.36z"/>
		</g>
		<g>
			<path class="st3" d="M495.9,385.69h25.58c-19.2,0-34.66-16.02-33.75-35.42c0.86-18.17,16.51-32.15,34.7-32.15h-25.58
				c-18.19,0-33.85,13.98-34.7,32.15C461.24,369.67,476.7,385.69,495.9,385.69z"/>
			<path class="st3" d="M522.44,462.26h-25.58c-18.19,0-33.85,13.98-34.7,32.15c-0.91,19.4,14.55,35.42,33.75,35.42h25.58
				c-19.2,0-34.66-16.02-33.75-35.42C488.59,476.24,504.25,462.26,522.44,462.26z"/>
			<path class="st3" d="M462.15,422.34c-0.91,19.4,14.55,35.42,33.75,35.42h25.58c-19.2,0-34.66-16.02-33.75-35.42
				c0.86-18.17,16.51-32.15,34.7-32.15h-25.58C478.66,390.19,463.01,404.17,462.15,422.34z"/>
			<path class="st3" d="M513.87,533.06h-25.58c-13.48,0-25.25,10.17-26.12,23.62c-0.95,14.74,10.72,26.99,25.25,26.99H513
				c-14.53,0-26.21-12.25-25.25-26.99C488.62,543.23,500.39,533.06,513.87,533.06z"/>
			<path class="st3" d="M304.61,372.24l1.5-5.44c-0.37,0.78-0.7,1.59-1.04,2.39c1.03-2.39,2.14-4.75,3.38-7.02H172.69v177.48h135.76
				c-6.55-12-10.28-25.76-10.28-40.39v-63.66c8.35,7.23,18.8,12.37,30.77,14.31c7.59,1.23,15.16,0.94,22.4-0.61
				C316.19,441.75,295.12,406.36,304.61,372.24z"/>
		</g>
		<g>
			<path class="st2" d="M360.86,196.62L360.86,196.62c30.97,8.61,49.1,40.7,40.49,71.67l-22.62,83.41
				c21.54,15.97,31.31,45.05,20.77,72.23c-3.64,9.38-9.49,17.43-16.74,23.79c17.4-5.54,32.13-18.61,39.01-36.38
				c10.53-27.18,0.77-56.26-20.77-72.23l22.62-83.41c8.61-30.97-9.52-63.06-40.49-71.67l0,0c-11.46-3.19-23.25,1.91-29.06,11.66
				C356.32,195.71,358.6,195.99,360.86,196.62z"/>
		</g>
		<path class="st4" d="M594.69,462.78c17.18-4.56,29.9-20.2,29.9-38.8c0-17.41-11.14-32.22-26.66-37.79
			c11.57-7.06,19.33-19.77,19.33-34.29c0-22.16-18.03-40.18-40.18-40.18H415.06l0,0l14.72-54.3c4.62-16.62,2.49-34.05-6-49.08
			c-8.49-15.02-22.32-25.84-38.94-30.46c-8.28-2.3-16.97-1.24-24.46,2.99c-7.49,4.23-12.88,11.12-15.19,19.43l-42.7,155.47H172.69
			c-3.53,0-6.4,2.86-6.4,6.4v177.47c0,3.53,2.86,6.4,6.4,6.4h132.05c16.4,27.26,45.89,44.04,77.86,44.04h179.77
			c17.48,0,31.7-14.22,31.7-31.7c0-9.45-4.18-17.92-10.76-23.73c16.75-4.84,29.05-20.29,29.05-38.58
			C612.37,482.23,605.35,470.01,594.69,462.78z M611.8,423.98c0,15.1-12.29,27.39-27.39,27.39h-62.92c-7.56,0-14.6-3.01-19.82-8.49
			c-5.22-5.47-7.89-12.66-7.54-20.24c0.68-14.37,13.38-26.06,28.31-26.06h61.97C599.51,396.58,611.8,408.87,611.8,423.98z
			 M522.44,324.51h54.65c15.1,0,27.39,12.29,27.39,27.39s-12.29,27.39-27.39,27.39h-55.6c-7.56,0-14.6-3.01-19.82-8.49
			c-5.22-5.47-7.89-12.66-7.54-20.24C494.8,336.2,507.5,324.51,522.44,324.51z M487.57,577.27H382.6
			c-28.57,0-54.84-15.6-68.54-40.71c-1.12-2.05-3.27-3.33-5.61-3.33H179.08V368.55h119.91l-0.55,1.99
			c-0.94,3.41,1.07,6.93,4.47,7.86c3.41,0.94,6.93-1.07,7.86-4.47l46.75-170.23c1.39-4.99,4.64-9.15,9.15-11.7
			c4.51-2.55,9.75-3.19,14.74-1.8c13.33,3.71,24.42,12.38,31.23,24.43c6.81,12.05,8.51,26.03,4.8,39.4l-22.62,83.41
			c-0.69,2.54,0.25,5.24,2.36,6.81c20,14.83,27.65,41.47,18.62,64.78c-9.37,24.16-34.71,38.69-60.27,34.54
			c-3.49-0.56-6.77,1.8-7.34,5.29c-0.57,3.49,1.8,6.77,5.29,7.34c3.6,0.58,7.19,0.87,10.76,0.87c27.61,0,53.27-17.05,63.49-43.41
			c10.57-27.28,2.55-58.27-19.46-76.93l3.31-12.22h80.74c-6.42,6.72-10.52,15.58-10.99,25.46c-0.52,11.11,3.4,21.64,11.06,29.67
			c3.39,3.55,7.32,6.35,11.58,8.42c-12.9,6.3-21.94,19-22.64,33.99c-0.52,11.11,3.4,21.64,11.06,29.67
			c3.39,3.55,7.32,6.35,11.58,8.42c-12.89,6.3-21.94,19-22.64,33.99c-0.52,11.11,3.4,21.64,11.06,29.67
			c2.23,2.34,4.71,4.33,7.35,6.04c-10.28,4.83-17.63,14.73-18.39,26.44C480.87,563.92,483.07,571.25,487.57,577.27z M562.38,577.27
			H513c-5.28,0-10.19-2.13-13.8-5.98c-3.61-3.85-5.41-8.9-5.07-14.2c0.64-9.89,9.31-17.64,19.74-17.64h48.5
			c10.43,0,18.91,8.48,18.91,18.91C581.29,568.79,572.8,577.27,562.38,577.27z M572.19,523.44h-50.7c-7.56,0-14.6-3.01-19.82-8.49
			c-5.22-5.47-7.89-12.66-7.54-20.24c0.68-14.37,13.38-26.06,28.31-26.06h49.75c15.1,0,27.39,12.29,27.39,27.39
			C599.58,511.16,587.29,523.44,572.19,523.44z"/>
	</g>
</g>
<g id="DESIGNED_BY_FREEPIK">
</g>
</svg>
